#!OML:ASF H:\Pregnant\Project 1\Capture day 1\Session 1\femalepreg.ASF
:FULLY-SPECIFIED
:DEGREES
1746
root 12.1138 15.6959 1.85737 29.6756 -27.0472 -2.43419
lowerback -17.1354 1.65975 -7.28756
upperback -8.50202 3.20121 -2.62614
thorax 0.217619 1.71909 1.86401
lowerneck -27.1418 4.06914 5.84363
upperneck 23.5859 2.40191 2.87602
head 12.372 2.01791 0.583562
rclavicle -6.94752e-014 -7.95139e-015
rhumerus -28.5881 36.8088 -93.0613
rradius 99.341
rwrist -41.1793
rhand -29.1284 -28.8103
rfingers 7.12502
rthumb -2.47576 -58.7757
lclavicle -6.94752e-014 -7.95139e-015
lhumerus -29.2882 -35.9233 88.3663
lradius 85.8442
lwrist 73.3426
lhand -16.2853 -1.18892
lfingers 7.12502
lthumb 9.92495 28.5571
rfemur -23.9521 9.8859 16.1435
rtibia 35.3103
rfoot -21.9535 -12.7863
rtoes -11.2442
lfemur -48.0383 -4.74466 -21.357
ltibia 24.4468
lfoot -6.78869 14.7481
ltoes -25.058
1747
root 12.1138 15.6915 1.81388 29.5713 -27.3399 -2.37233
lowerback -17.1878 1.75595 -7.22029
upperback -8.52392 3.32067 -2.69502
thorax 0.220707 1.77485 1.77458
lowerneck -26.9682 4.09362 5.84721
upperneck 23.6964 2.43447 2.91514
head 12.3836 2.03958 0.602395
rclavicle -4.77083e-015 7.95139e-015
rhumerus -28.2358 36.5041 -92.9403
rradius 99.1438
rwrist -41.7555
rhand -29.0247 -29.0469
rfingers 7.12502
rthumb -2.37558 -59.0134
lclavicle -4.77083e-015 7.95139e-015
lhumerus -28.8575 -35.9661 87.8813
lradius 86.1347
lwrist 72.5174
lhand -17.1108 -0.629569
lfingers 7.12502
lthumb 9.12841 29.1529
rfemur -23.6595 9.82582 16.2914
rtibia 34.7762
rfoot -21.6455 -12.9669
rtoes -12.013
lfemur -48.0839 -4.76735 -21.2646
ltibia 24.4789
lfoot -6.74003 15.0358
ltoes -24.9777
1748
root 12.114 15.6872 1.76898 29.4655 -27.635 -2.30681
lowerback -17.2322 1.85413 -7.15067
upperback -8.53648 3.44241 -2.7643
thorax 0.230257 1.83136 1.6839
lowerneck -26.7538 4.08614 5.78075
upperneck 23.7462 2.44482 2.99389
head 12.361 2.049 0.641501
rclavicle 1.59028e-015 0
rhumerus -27.889 36.1692 -92.8164
rradius 98.9785
rwrist -42.2821
rhand -28.871 -29.3069
rfingers 7.12502
rthumb -2.22712 -59.275
lclavicle 1.59028e-015 0
lhumerus -28.4288 -35.9763 87.4009
lradius 86.4429
lwrist 71.6521
lhand -17.7602 0.264992
lfingers 7.12502
lthumb 8.50174 30.0739
rfemur -23.4161 9.76161 16.4475
rtibia 34.2578
rfoot -21.495 -13.2829
rtoes -12.8461
lfemur -48.1286 -4.7876 -21.1737
ltibia 24.4962
lfoot -6.6675 15.3222
ltoes -24.9303
1749
root 12.1143 15.6831 1.72284 29.3575 -27.9297 -2.23625
lowerback -17.2626 1.95145 -7.07862
upperback -8.54902 3.56137 -2.83352
thorax 0.233413 1.88662 1.59099
lowerneck -26.4796 4.05455 5.66077
upperneck 23.7379 2.44077 3.10352
head 12.3023 2.04985 0.695881
rclavicle -6.34123e-014 1.90833e-014
rhumerus -27.5687 35.8138 -92.7134
rradius 98.8383
rwrist -42.7262
rhand -28.7188 -29.544
rfingers 7.12502
rthumb -2.08016 -59.5136
lclavicle -6.34123e-014 1.90833e-014
lhumerus -28.0288 -35.9459 86.9372
lradius 86.7789
lwrist 70.7784
lhand -18.2944 1.25852
lfingers 7.12502
lthumb 7.98623 31.0876
rfemur -23.2227 9.6791 16.612
rtibia 33.7633
rfoot -21.5341 -13.7243
rtoes -13.5957
lfemur -48.1702 -4.80869 -21.0842
ltibia 24.496
lfoot -6.57954 15.6063
ltoes -24.8744
1750
root 12.1148 15.679 1.67585 29.2432 -28.2237 -2.16407
lowerback -17.2815 2.04257 -7.00454
upperback -8.55992 3.67074 -2.89204
thorax 0.233104 1.93737 1.5063
lowerneck -26.1777 4.02201 5.52175
upperneck 23.7009 2.44716 3.20856
head 12.2266 2.05206 0.752144
rclavicle 3.80673e-014 -2.06736e-014
rhumerus -27.2822 35.4673 -92.6329
rradius 98.7264
rwrist -43.0861
rhand -28.6041 -29.7448
rfingers 7.12502
rthumb -1.96937 -59.7154
lclavicle 3.80673e-014 -2.06736e-014
lhumerus -27.6634 -35.8595 86.5017
lradius 87.1439
lwrist 69.9266
lhand -18.7197 2.33616
lfingers 7.12502
lthumb 7.57572 32.1805
rfemur -23.0669 9.57105 16.7866
rtibia 33.2992
rfoot -21.7402 -14.2794
rtoes -14.0711
lfemur -48.2013 -4.83034 -20.9946
ltibia 24.4784
lfoot -6.4635 15.8853
ltoes -24.8556
1751
root 12.115 15.6747 1.62824 29.127 -28.5099 -2.09259
lowerback -17.2911 2.12568 -6.92977
upperback -8.57092 3.76838 -2.9367
thorax 0.22816 1.98272 1.43353
lowerneck -25.8983 4.00916 5.41079
upperneck 23.6706 2.47996 3.27009
head 12.159 2.06272 0.792534
rclavicle 2.33572e-014 -1.59028e-014
rhumerus -27.0322 35.1325 -92.5765
rradius 98.639
rwrist -43.3517
rhand -28.4897 -29.8964
rfingers 7.12502
rthumb -1.85886 -59.868
lclavicle 2.33572e-014 -1.59028e-014
lhumerus -27.3469 -35.7164 86.1098
lradius 87.5446
lwrist 69.1219
lhand -19.0859 3.42305
lfingers 7.12502
lthumb 7.22219 33.2798
rfemur -22.9406 9.43076 16.9759
rtibia 32.8686
rfoot -22.0422 -14.928
rtoes -14.3064
lfemur -48.2278 -4.85717 -20.8984
ltibia 24.4481
lfoot -6.32074 16.1574
ltoes -24.8696
